<svg xmlns="http://www.w3.org/2000/svg" width="1200" height="420" viewBox="0 0 1200 420" role="img" aria-label="Yugandar, Software Engineer at VMock India Pvt Ltd">
<title>YUGANDAR - Software Engineer @ VMock India Pvt Ltd</title>
<defs>
  <linearGradient id="sky" x1="0" y1="0" x2="0" y2="1">
    <stop offset="0" stop-color="#03000c"/><stop offset=".55" stop-color="#14002e"/><stop offset="1" stop-color="#2a0050"/>
  </linearGradient>
  <linearGradient id="floor" x1="0" y1="0" x2="0" y2="1">
    <stop offset="0" stop-color="#1a0033"/><stop offset="1" stop-color="#05000f"/>
  </linearGradient>
  <linearGradient id="sun" x1="0" y1="0" x2="0" y2="1">
    <stop offset="0" stop-color="#ffe14d"/><stop offset=".45" stop-color="#ff7a3d"/><stop offset="1" stop-color="#ff1f9e"/>
  </linearGradient>
  <radialGradient id="sunGlow" cx=".5" cy=".5" r=".5">
    <stop offset="0" stop-color="#ff3fb4" stop-opacity=".55"/><stop offset="1" stop-color="#ff3fb4" stop-opacity="0"/>
  </radialGradient>
  <linearGradient id="name" x1="0" y1="0" x2="0" y2="1">
    <stop offset="0" stop-color="#ffffff"/><stop offset=".55" stop-color="#ffd1f4"/><stop offset="1" stop-color="#ff5fd2"/>
  </linearGradient>
  <linearGradient id="gridFade" x1="0" y1="0" x2="0" y2="1">
    <stop offset="0" stop-color="#fff" stop-opacity="0"/><stop offset=".25" stop-color="#fff" stop-opacity=".9"/><stop offset="1" stop-color="#fff" stop-opacity="1"/>
  </linearGradient>
  <mask id="floorMask"><rect x="0" y="262" width="1200" height="158" fill="url(#gridFade)"/></mask>
  <!-- Sun stripes: gaps that scroll downward -->
  <mask id="sunMask">
    <rect x="0" y="0" width="1200" height="420" fill="#fff"/>
    <g fill="#000">
      <rect x="400" y="178" width="400" height="3"><animate attributeName="y" values="178;196" dur="1.6s" repeatCount="indefinite"/></rect>
      <rect x="400" y="196" width="400" height="5"><animate attributeName="y" values="196;214" dur="1.6s" repeatCount="indefinite"/></rect>
      <rect x="400" y="214" width="400" height="7"><animate attributeName="y" values="214;232" dur="1.6s" repeatCount="indefinite"/></rect>
      <rect x="400" y="232" width="400" height="9"><animate attributeName="y" values="232;250" dur="1.6s" repeatCount="indefinite"/></rect>
      <rect x="400" y="250" width="400" height="11"><animate attributeName="y" values="250;268" dur="1.6s" repeatCount="indefinite"/></rect>
    </g>
  </mask>
  <filter id="glow" x="-30%" y="-60%" width="160%" height="220%">
    <feGaussianBlur stdDeviation="7" result="b"/><feMerge><feMergeNode in="b"/><feMergeNode in="b"/><feMergeNode in="SourceGraphic"/></feMerge>
  </filter>
  <filter id="softGlow" x="-20%" y="-50%" width="140%" height="200%">
    <feGaussianBlur stdDeviation="2.5" result="b"/><feMerge><feMergeNode in="b"/><feMergeNode in="SourceGraphic"/></feMerge>
  </filter>
  <pattern id="scan" width="4" height="4" patternUnits="userSpaceOnUse"><rect width="4" height="1.4" fill="#000" fill-opacity=".35"/></pattern>
  <linearGradient id="scanBar" x1="0" y1="0" x2="0" y2="1">
    <stop offset="0" stop-color="#7df9ff" stop-opacity="0"/><stop offset=".5" stop-color="#7df9ff" stop-opacity=".10"/><stop offset="1" stop-color="#7df9ff" stop-opacity="0"/>
  </linearGradient>
  <!-- Glitch slices -->
  <clipPath id="sliceA"><rect x="0" y="70" width="1200" height="22"><animate attributeName="y" values="70;104;84;120;70" keyTimes="0;.25;.5;.75;1" dur="0.9s" repeatCount="indefinite" calcMode="discrete"/></rect></clipPath>
  <clipPath id="sliceB"><rect x="0" y="118" width="1200" height="14"><animate attributeName="y" values="118;80;130;96;118" keyTimes="0;.25;.5;.75;1" dur="0.7s" repeatCount="indefinite" calcMode="discrete"/></rect></clipPath>
</defs>
<style>
  .display { font-family: 'Arial Black', 'Helvetica Neue', Impact, sans-serif; font-weight: 900; }
  .mono { font-family: 'JetBrains Mono', 'Fira Code', SFMono-Regular, Menlo, Consolas, monospace; }
</style>

<rect width="1200" height="420" fill="url(#sky)"/>
<g fill="#fff">
  <circle cx="389" cy="35" r="0.6" opacity=".8"><animate attributeName="opacity" values=".9;0.21;.9" dur="1.7s" begin="-2.1s" repeatCount="indefinite"/></circle>
  <circle cx="70" cy="118" r="0.6" opacity=".8"><animate attributeName="opacity" values=".9;0.17;.9" dur="1.8s" begin="-1.7s" repeatCount="indefinite"/></circle>
  <circle cx="661" cy="14" r="0.6" opacity=".8"><animate attributeName="opacity" values=".9;0.27;.9" dur="4.3s" begin="-2.5s" repeatCount="indefinite"/></circle>
  <circle cx="74" cy="136" r="0.6" opacity=".8"><animate attributeName="opacity" values=".9;0.36;.9" dur="4.4s" begin="-0.2s" repeatCount="indefinite"/></circle>
  <circle cx="348" cy="33" r="0.6" opacity=".8"><animate attributeName="opacity" values=".9;0.30;.9" dur="3.2s" begin="-2.2s" repeatCount="indefinite"/></circle>
  <circle cx="124" cy="133" r="0.8" opacity=".8"><animate attributeName="opacity" values=".9;0.12;.9" dur="2.6s" begin="-2.2s" repeatCount="indefinite"/></circle>
  <circle cx="72" cy="48" r="1.3" opacity=".8"><animate attributeName="opacity" values=".9;0.38;.9" dur="3.8s" begin="-1.9s" repeatCount="indefinite"/></circle>
  <circle cx="434" cy="58" r="0.8" opacity=".8"><animate attributeName="opacity" values=".9;0.27;.9" dur="3.6s" begin="-1.0s" repeatCount="indefinite"/></circle>
  <circle cx="630" cy="203" r="1.3" opacity=".8"><animate attributeName="opacity" values=".9;0.14;.9" dur="2.4s" begin="-3.9s" repeatCount="indefinite"/></circle>
  <circle cx="502" cy="176" r="0.8" opacity=".8"><animate attributeName="opacity" values=".9;0.39;.9" dur="4.3s" begin="-1.7s" repeatCount="indefinite"/></circle>
  <circle cx="93" cy="129" r="1" opacity=".8"><animate attributeName="opacity" values=".9;0.25;.9" dur="2.5s" begin="-1.4s" repeatCount="indefinite"/></circle>
  <circle cx="956" cy="16" r="0.6" opacity=".8"><animate attributeName="opacity" values=".9;0.30;.9" dur="4.3s" begin="-1.9s" repeatCount="indefinite"/></circle>
  <circle cx="73" cy="163" r="1.3" opacity=".8"><animate attributeName="opacity" values=".9;0.30;.9" dur="2.4s" begin="-1.5s" repeatCount="indefinite"/></circle>
  <circle cx="27" cy="107" r="0.8" opacity=".8"><animate attributeName="opacity" values=".9;0.17;.9" dur="3.3s" begin="-2.0s" repeatCount="indefinite"/></circle>
  <circle cx="345" cy="171" r="1.3" opacity=".8"><animate attributeName="opacity" values=".9;0.12;.9" dur="2.7s" begin="-3.5s" repeatCount="indefinite"/></circle>
  <circle cx="539" cy="127" r="0.8" opacity=".8"><animate attributeName="opacity" values=".9;0.18;.9" dur="4.0s" begin="-3.5s" repeatCount="indefinite"/></circle>
  <circle cx="498" cy="83" r="1.3" opacity=".8"><animate attributeName="opacity" values=".9;0.15;.9" dur="4.4s" begin="-0.6s" repeatCount="indefinite"/></circle>
  <circle cx="278" cy="54" r="1.3" opacity=".8"><animate attributeName="opacity" values=".9;0.18;.9" dur="4.0s" begin="-0.7s" repeatCount="indefinite"/></circle>
  <circle cx="175" cy="124" r="1" opacity=".8"><animate attributeName="opacity" values=".9;0.25;.9" dur="4.4s" begin="-2.8s" repeatCount="indefinite"/></circle>
  <circle cx="741" cy="157" r="0.6" opacity=".8"><animate attributeName="opacity" values=".9;0.39;.9" dur="2.9s" begin="-3.5s" repeatCount="indefinite"/></circle>
  <circle cx="817" cy="130" r="1.3" opacity=".8"><animate attributeName="opacity" values=".9;0.29;.9" dur="2.7s" begin="-0.4s" repeatCount="indefinite"/></circle>
  <circle cx="75" cy="16" r="0.8" opacity=".8"><animate attributeName="opacity" values=".9;0.28;.9" dur="2.8s" begin="-0.4s" repeatCount="indefinite"/></circle>
  <circle cx="123" cy="131" r="0.6" opacity=".8"><animate attributeName="opacity" values=".9;0.12;.9" dur="4.3s" begin="-2.5s" repeatCount="indefinite"/></circle>
  <circle cx="250" cy="87" r="1" opacity=".8"><animate attributeName="opacity" values=".9;0.24;.9" dur="4.4s" begin="-2.4s" repeatCount="indefinite"/></circle>
  <circle cx="138" cy="113" r="1.3" opacity=".8"><animate attributeName="opacity" values=".9;0.14;.9" dur="2.9s" begin="-1.2s" repeatCount="indefinite"/></circle>
  <circle cx="900" cy="172" r="1.3" opacity=".8"><animate attributeName="opacity" values=".9;0.11;.9" dur="4.0s" begin="-0.6s" repeatCount="indefinite"/></circle>
  <circle cx="1141" cy="123" r="0.8" opacity=".8"><animate attributeName="opacity" values=".9;0.33;.9" dur="3.6s" begin="-3.7s" repeatCount="indefinite"/></circle>
  <circle cx="358" cy="149" r="0.6" opacity=".8"><animate attributeName="opacity" values=".9;0.21;.9" dur="3.6s" begin="-1.0s" repeatCount="indefinite"/></circle>
  <circle cx="200" cy="179" r="1" opacity=".8"><animate attributeName="opacity" values=".9;0.34;.9" dur="3.4s" begin="-2.5s" repeatCount="indefinite"/></circle>
  <circle cx="910" cy="45" r="0.8" opacity=".8"><animate attributeName="opacity" values=".9;0.17;.9" dur="4.0s" begin="-3.0s" repeatCount="indefinite"/></circle>
  <circle cx="621" cy="82" r="0.6" opacity=".8"><animate attributeName="opacity" values=".9;0.24;.9" dur="4.5s" begin="-3.2s" repeatCount="indefinite"/></circle>
  <circle cx="232" cy="140" r="1" opacity=".8"><animate attributeName="opacity" values=".9;0.40;.9" dur="2.8s" begin="-3.7s" repeatCount="indefinite"/></circle>
  <circle cx="1146" cy="85" r="0.8" opacity=".8"><animate attributeName="opacity" values=".9;0.20;.9" dur="1.8s" begin="-1.9s" repeatCount="indefinite"/></circle>
  <circle cx="579" cy="229" r="0.6" opacity=".8"><animate attributeName="opacity" values=".9;0.34;.9" dur="2.9s" begin="-2.6s" repeatCount="indefinite"/></circle>
  <circle cx="102" cy="153" r="1.3" opacity=".8"><animate attributeName="opacity" values=".9;0.24;.9" dur="3.8s" begin="-3.0s" repeatCount="indefinite"/></circle>
  <circle cx="214" cy="183" r="1" opacity=".8"><animate attributeName="opacity" values=".9;0.32;.9" dur="1.8s" begin="-3.8s" repeatCount="indefinite"/></circle>
  <circle cx="556" cy="172" r="0.6" opacity=".8"><animate attributeName="opacity" values=".9;0.14;.9" dur="3.7s" begin="-0.7s" repeatCount="indefinite"/></circle>
  <circle cx="181" cy="210" r="0.8" opacity=".8"><animate attributeName="opacity" values=".9;0.24;.9" dur="3.3s" begin="-2.4s" repeatCount="indefinite"/></circle>
  <circle cx="1125" cy="36" r="0.8" opacity=".8"><animate attributeName="opacity" values=".9;0.32;.9" dur="1.6s" begin="-3.2s" repeatCount="indefinite"/></circle>
  <circle cx="123" cy="174" r="0.8" opacity=".8"><animate attributeName="opacity" values=".9;0.35;.9" dur="2.8s" begin="-3.5s" repeatCount="indefinite"/></circle>
  <circle cx="253" cy="58" r="1" opacity=".8"><animate attributeName="opacity" values=".9;0.20;.9" dur="3.0s" begin="-3.1s" repeatCount="indefinite"/></circle>
  <circle cx="653" cy="194" r="0.6" opacity=".8"><animate attributeName="opacity" values=".9;0.24;.9" dur="4.2s" begin="-1.4s" repeatCount="indefinite"/></circle>
  <circle cx="700" cy="210" r="1.3" opacity=".8"><animate attributeName="opacity" values=".9;0.14;.9" dur="4.0s" begin="-3.5s" repeatCount="indefinite"/></circle>
  <circle cx="182" cy="118" r="1.3" opacity=".8"><animate attributeName="opacity" values=".9;0.33;.9" dur="3.8s" begin="-2.4s" repeatCount="indefinite"/></circle>
  <circle cx="180" cy="33" r="0.6" opacity=".8"><animate attributeName="opacity" values=".9;0.26;.9" dur="3.2s" begin="-1.3s" repeatCount="indefinite"/></circle>
  <circle cx="667" cy="182" r="0.6" opacity=".8"><animate attributeName="opacity" values=".9;0.16;.9" dur="4.1s" begin="-0.2s" repeatCount="indefinite"/></circle>
  <circle cx="51" cy="23" r="1.3" opacity=".8"><animate attributeName="opacity" values=".9;0.37;.9" dur="3.2s" begin="-3.0s" repeatCount="indefinite"/></circle>
  <circle cx="532" cy="142" r="0.8" opacity=".8"><animate attributeName="opacity" values=".9;0.26;.9" dur="3.6s" begin="-1.8s" repeatCount="indefinite"/></circle>
  <circle cx="574" cy="218" r="1" opacity=".8"><animate attributeName="opacity" values=".9;0.16;.9" dur="4.3s" begin="-3.6s" repeatCount="indefinite"/></circle>
  <circle cx="537" cy="97" r="1.3" opacity=".8"><animate attributeName="opacity" values=".9;0.17;.9" dur="2.8s" begin="-0.3s" repeatCount="indefinite"/></circle>
  <circle cx="88" cy="155" r="0.6" opacity=".8"><animate attributeName="opacity" values=".9;0.31;.9" dur="4.2s" begin="-0.6s" repeatCount="indefinite"/></circle>
  <circle cx="792" cy="33" r="0.8" opacity=".8"><animate attributeName="opacity" values=".9;0.39;.9" dur="4.4s" begin="-0.9s" repeatCount="indefinite"/></circle>
  <circle cx="478" cy="113" r="0.8" opacity=".8"><animate attributeName="opacity" values=".9;0.25;.9" dur="2.0s" begin="-1.7s" repeatCount="indefinite"/></circle>
  <circle cx="407" cy="45" r="1" opacity=".8"><animate attributeName="opacity" values=".9;0.20;.9" dur="1.8s" begin="-1.5s" repeatCount="indefinite"/></circle>
  <circle cx="550" cy="163" r="1.3" opacity=".8"><animate attributeName="opacity" values=".9;0.25;.9" dur="2.5s" begin="-2.5s" repeatCount="indefinite"/></circle>
  <circle cx="77" cy="229" r="0.8" opacity=".8"><animate attributeName="opacity" values=".9;0.18;.9" dur="4.4s" begin="-0.4s" repeatCount="indefinite"/></circle>
  <circle cx="48" cy="181" r="1" opacity=".8"><animate attributeName="opacity" values=".9;0.35;.9" dur="3.8s" begin="-3.3s" repeatCount="indefinite"/></circle>
  <circle cx="811" cy="219" r="1.3" opacity=".8"><animate attributeName="opacity" values=".9;0.27;.9" dur="1.9s" begin="-3.7s" repeatCount="indefinite"/></circle>
  <circle cx="841" cy="21" r="0.6" opacity=".8"><animate attributeName="opacity" values=".9;0.37;.9" dur="3.9s" begin="-0.7s" repeatCount="indefinite"/></circle>
  <circle cx="323" cy="4" r="0.6" opacity=".8"><animate attributeName="opacity" values=".9;0.36;.9" dur="3.9s" begin="-0.3s" repeatCount="indefinite"/></circle>
  <circle cx="80" cy="200" r="1.3" opacity=".8"><animate attributeName="opacity" values=".9;0.23;.9" dur="1.5s" begin="-4.0s" repeatCount="indefinite"/></circle>
  <circle cx="1099" cy="144" r="0.6" opacity=".8"><animate attributeName="opacity" values=".9;0.13;.9" dur="3.1s" begin="-1.0s" repeatCount="indefinite"/></circle>
  <circle cx="194" cy="12" r="0.8" opacity=".8"><animate attributeName="opacity" values=".9;0.26;.9" dur="4.3s" begin="-2.5s" repeatCount="indefinite"/></circle>
  <circle cx="247" cy="103" r="0.8" opacity=".8"><animate attributeName="opacity" values=".9;0.40;.9" dur="2.3s" begin="-3.2s" repeatCount="indefinite"/></circle>
  <circle cx="44" cy="4" r="0.8" opacity=".8"><animate attributeName="opacity" values=".9;0.23;.9" dur="3.0s" begin="-1.0s" repeatCount="indefinite"/></circle>
  <circle cx="790" cy="151" r="1.3" opacity=".8"><animate attributeName="opacity" values=".9;0.39;.9" dur="3.1s" begin="-3.6s" repeatCount="indefinite"/></circle>
  <circle cx="369" cy="50" r="0.8" opacity=".8"><animate attributeName="opacity" values=".9;0.31;.9" dur="2.5s" begin="-3.3s" repeatCount="indefinite"/></circle>
  <circle cx="763" cy="94" r="1" opacity=".8"><animate attributeName="opacity" values=".9;0.10;.9" dur="4.4s" begin="-3.3s" repeatCount="indefinite"/></circle>
  <circle cx="751" cy="204" r="1.3" opacity=".8"><animate attributeName="opacity" values=".9;0.35;.9" dur="2.0s" begin="-0.3s" repeatCount="indefinite"/></circle>
  <circle cx="1045" cy="156" r="1" opacity=".8"><animate attributeName="opacity" values=".9;0.11;.9" dur="3.3s" begin="-2.8s" repeatCount="indefinite"/></circle>
</g>
<g opacity="0">
  <line x1="0" y1="0" x2="90" y2="0" stroke="#fff" stroke-width="2" stroke-linecap="round" transform="rotate(18)"/>
  <animateTransform attributeName="transform" type="translate" values="80 30;520 175" dur="1.1s" begin="2s;shoot.end+5s" id="shoot" fill="freeze"/>
  <animate attributeName="opacity" values="0;1;0" dur="1.1s" begin="2s;shoot.end+5s"/>
</g>
<circle cx="600" cy="200" r="210" fill="url(#sunGlow)"><animate attributeName="r" values="200;225;200" dur="4s" repeatCount="indefinite"/></circle>
<circle cx="600" cy="200" r="118" fill="url(#sun)" mask="url(#sunMask)"/>
<g>
  <rect x="0" y="234" width="33" height="28" fill="#0b0018"/>
  <rect x="35" y="244" width="50" height="18" fill="#0b0018"/>
  <rect x="87" y="223" width="45" height="39" fill="#0b0018"/>
  <rect x="136" y="229" width="42" height="33" fill="#0b0018"/>
  <rect x="178" y="231" width="41" height="31" fill="#0b0018"/>
  <rect x="221" y="244" width="33" height="18" fill="#0b0018"/>
  <rect x="256" y="239" width="46" height="23" fill="#0b0018"/>
  <rect x="305" y="212" width="39" height="50" fill="#0b0018"/>
  <rect x="345" y="212" width="37" height="50" fill="#0b0018"/>
  <rect x="382" y="228" width="27" height="34" fill="#0b0018"/>
  <rect x="409" y="219" width="31" height="43" fill="#0b0018"/>
  <rect x="444" y="252" width="24" height="10" fill="#0b0018"/>
  <rect x="470" y="245" width="41" height="17" fill="#0b0018"/>
  <rect x="511" y="248" width="55" height="14" fill="#0b0018"/>
  <rect x="570" y="242" width="46" height="20" fill="#0b0018"/>
  <rect x="619" y="248" width="31" height="14" fill="#0b0018"/>
  <rect x="650" y="239" width="54" height="23" fill="#0b0018"/>
  <rect x="708" y="236" width="30" height="26" fill="#0b0018"/>
  <rect x="742" y="192" width="23" height="70" fill="#0b0018"/>
  <rect x="769" y="239" width="36" height="23" fill="#0b0018"/>
  <rect x="805" y="236" width="24" height="26" fill="#0b0018"/>
  <rect x="831" y="220" width="28" height="42" fill="#0b0018"/>
  <rect x="862" y="241" width="57" height="21" fill="#0b0018"/>
  <rect x="919" y="201" width="56" height="61" fill="#0b0018"/>
  <rect x="976" y="228" width="53" height="34" fill="#0b0018"/>
  <rect x="1029" y="193" width="51" height="69" fill="#0b0018"/>
  <rect x="1080" y="210" width="54" height="52" fill="#0b0018"/>
  <rect x="1134" y="240" width="55" height="22" fill="#0b0018"/>
  <rect x="1192" y="193" width="38" height="69" fill="#0b0018"/>
</g><g fill="#ffd36e">
  <rect x="100" y="229" width="3" height="4" opacity=".85"><animate attributeName="opacity" values=".9;.9;.15;.9" keyTimes="0;.7;.8;1" dur="6.6s" begin="-1.7s" repeatCount="indefinite"/></rect>
  <rect x="108" y="229" width="3" height="4" opacity=".85"><animate attributeName="opacity" values=".9;.9;.15;.9" keyTimes="0;.7;.8;1" dur="5.2s" begin="-1.2s" repeatCount="indefinite"/></rect>
  <rect x="116" y="238" width="3" height="4" opacity=".85"><animate attributeName="opacity" values=".9;.9;.15;.9" keyTimes="0;.7;.8;1" dur="4.4s" begin="-2.9s" repeatCount="indefinite"/></rect>
  <rect x="92" y="247" width="3" height="4" opacity=".85"><animate attributeName="opacity" values=".9;.9;.15;.9" keyTimes="0;.7;.8;1" dur="3.1s" begin="-2.9s" repeatCount="indefinite"/></rect>
  <rect x="165" y="235" width="3" height="4" opacity=".85"><animate attributeName="opacity" values=".9;.9;.15;.9" keyTimes="0;.7;.8;1" dur="4.4s" begin="-1.7s" repeatCount="indefinite"/></rect>
  <rect x="141" y="244" width="3" height="4" opacity=".85"><animate attributeName="opacity" values=".9;.9;.15;.9" keyTimes="0;.7;.8;1" dur="4.5s" begin="-6.0s" repeatCount="indefinite"/></rect>
  <rect x="149" y="253" width="3" height="4" opacity=".85"><animate attributeName="opacity" values=".9;.9;.15;.9" keyTimes="0;.7;.8;1" dur="2.5s" begin="-4.5s" repeatCount="indefinite"/></rect>
  <rect x="207" y="237" width="3" height="4" opacity=".85"><animate attributeName="opacity" values=".9;.9;.15;.9" keyTimes="0;.7;.8;1" dur="3.8s" begin="-3.0s" repeatCount="indefinite"/></rect>
  <rect x="199" y="246" width="3" height="4" opacity=".85"><animate attributeName="opacity" values=".9;.9;.15;.9" keyTimes="0;.7;.8;1" dur="6.7s" begin="-4.1s" repeatCount="indefinite"/></rect>
  <rect x="207" y="255" width="3" height="4" opacity=".85"><animate attributeName="opacity" values=".9;.9;.15;.9" keyTimes="0;.7;.8;1" dur="3.7s" begin="-1.9s" repeatCount="indefinite"/></rect>
  <rect x="310" y="227" width="3" height="4" opacity=".85"><animate attributeName="opacity" values=".9;.9;.15;.9" keyTimes="0;.7;.8;1" dur="5.7s" begin="-1.5s" repeatCount="indefinite"/></rect>
  <rect x="318" y="227" width="3" height="4" opacity=".85"><animate attributeName="opacity" values=".9;.9;.15;.9" keyTimes="0;.7;.8;1" dur="4.0s" begin="-5.2s" repeatCount="indefinite"/></rect>
  <rect x="326" y="227" width="3" height="4" opacity=".85"><animate attributeName="opacity" values=".9;.9;.15;.9" keyTimes="0;.7;.8;1" dur="6.6s" begin="-4.5s" repeatCount="indefinite"/></rect>
  <rect x="318" y="236" width="3" height="4" opacity=".85"><animate attributeName="opacity" values=".9;.9;.15;.9" keyTimes="0;.7;.8;1" dur="5.3s" begin="-3.8s" repeatCount="indefinite"/></rect>
  <rect x="326" y="236" width="3" height="4" opacity=".85"><animate attributeName="opacity" values=".9;.9;.15;.9" keyTimes="0;.7;.8;1" dur="6.9s" begin="-2.6s" repeatCount="indefinite"/></rect>
  <rect x="334" y="245" width="3" height="4" opacity=".85"><animate attributeName="opacity" values=".9;.9;.15;.9" keyTimes="0;.7;.8;1" dur="5.8s" begin="-2.4s" repeatCount="indefinite"/></rect>
  <rect x="334" y="254" width="3" height="4" opacity=".85"><animate attributeName="opacity" values=".9;.9;.15;.9" keyTimes="0;.7;.8;1" dur="6.7s" begin="-2.5s" repeatCount="indefinite"/></rect>
  <rect x="358" y="218" width="3" height="4" opacity=".85"><animate attributeName="opacity" values=".9;.9;.15;.9" keyTimes="0;.7;.8;1" dur="6.3s" begin="-2.9s" repeatCount="indefinite"/></rect>
  <rect x="350" y="227" width="3" height="4" opacity=".85"><animate attributeName="opacity" values=".9;.9;.15;.9" keyTimes="0;.7;.8;1" dur="4.1s" begin="-1.7s" repeatCount="indefinite"/></rect>
  <rect x="350" y="245" width="3" height="4" opacity=".85"><animate attributeName="opacity" values=".9;.9;.15;.9" keyTimes="0;.7;.8;1" dur="5.2s" begin="-0.5s" repeatCount="indefinite"/></rect>
  <rect x="403" y="234" width="3" height="4" opacity=".85"><animate attributeName="opacity" values=".9;.9;.15;.9" keyTimes="0;.7;.8;1" dur="4.8s" begin="-1.9s" repeatCount="indefinite"/></rect>
  <rect x="387" y="252" width="3" height="4" opacity=".85"><animate attributeName="opacity" values=".9;.9;.15;.9" keyTimes="0;.7;.8;1" dur="6.4s" begin="-2.3s" repeatCount="indefinite"/></rect>
  <rect x="414" y="252" width="3" height="4" opacity=".85"><animate attributeName="opacity" values=".9;.9;.15;.9" keyTimes="0;.7;.8;1" dur="6.5s" begin="-2.3s" repeatCount="indefinite"/></rect>
  <rect x="713" y="251" width="3" height="4" opacity=".85"><animate attributeName="opacity" values=".9;.9;.15;.9" keyTimes="0;.7;.8;1" dur="4.1s" begin="-4.6s" repeatCount="indefinite"/></rect>
  <rect x="755" y="198" width="3" height="4" opacity=".85"><animate attributeName="opacity" values=".9;.9;.15;.9" keyTimes="0;.7;.8;1" dur="6.7s" begin="-5.6s" repeatCount="indefinite"/></rect>
  <rect x="755" y="225" width="3" height="4" opacity=".85"><animate attributeName="opacity" values=".9;.9;.15;.9" keyTimes="0;.7;.8;1" dur="6.9s" begin="-0.7s" repeatCount="indefinite"/></rect>
  <rect x="747" y="252" width="3" height="4" opacity=".85"><animate attributeName="opacity" values=".9;.9;.15;.9" keyTimes="0;.7;.8;1" dur="5.9s" begin="-0.0s" repeatCount="indefinite"/></rect>
  <rect x="755" y="252" width="3" height="4" opacity=".85"><animate attributeName="opacity" values=".9;.9;.15;.9" keyTimes="0;.7;.8;1" dur="4.8s" begin="-0.2s" repeatCount="indefinite"/></rect>
  <rect x="852" y="226" width="3" height="4" opacity=".85"><animate attributeName="opacity" values=".9;.9;.15;.9" keyTimes="0;.7;.8;1" dur="3.5s" begin="-5.7s" repeatCount="indefinite"/></rect>
  <rect x="836" y="244" width="3" height="4" opacity=".85"><animate attributeName="opacity" values=".9;.9;.15;.9" keyTimes="0;.7;.8;1" dur="4.7s" begin="-6.0s" repeatCount="indefinite"/></rect>
  <rect x="932" y="207" width="3" height="4" opacity=".85"><animate attributeName="opacity" values=".9;.9;.15;.9" keyTimes="0;.7;.8;1" dur="4.1s" begin="-3.9s" repeatCount="indefinite"/></rect>
  <rect x="940" y="207" width="3" height="4" opacity=".85"><animate attributeName="opacity" values=".9;.9;.15;.9" keyTimes="0;.7;.8;1" dur="3.0s" begin="-5.3s" repeatCount="indefinite"/></rect>
  <rect x="956" y="207" width="3" height="4" opacity=".85"><animate attributeName="opacity" values=".9;.9;.15;.9" keyTimes="0;.7;.8;1" dur="3.1s" begin="-2.5s" repeatCount="indefinite"/></rect>
  <rect x="964" y="216" width="3" height="4" opacity=".85"><animate attributeName="opacity" values=".9;.9;.15;.9" keyTimes="0;.7;.8;1" dur="3.5s" begin="-5.1s" repeatCount="indefinite"/></rect>
  <rect x="924" y="225" width="3" height="4" opacity=".85"><animate attributeName="opacity" values=".9;.9;.15;.9" keyTimes="0;.7;.8;1" dur="4.5s" begin="-1.2s" repeatCount="indefinite"/></rect>
  <rect x="924" y="234" width="3" height="4" opacity=".85"><animate attributeName="opacity" values=".9;.9;.15;.9" keyTimes="0;.7;.8;1" dur="5.1s" begin="-3.7s" repeatCount="indefinite"/></rect>
  <rect x="956" y="234" width="3" height="4" opacity=".85"><animate attributeName="opacity" values=".9;.9;.15;.9" keyTimes="0;.7;.8;1" dur="5.0s" begin="-5.5s" repeatCount="indefinite"/></rect>
  <rect x="964" y="234" width="3" height="4" opacity=".85"><animate attributeName="opacity" values=".9;.9;.15;.9" keyTimes="0;.7;.8;1" dur="2.1s" begin="-3.6s" repeatCount="indefinite"/></rect>
  <rect x="924" y="252" width="3" height="4" opacity=".85"><animate attributeName="opacity" values=".9;.9;.15;.9" keyTimes="0;.7;.8;1" dur="2.4s" begin="-1.0s" repeatCount="indefinite"/></rect>
  <rect x="1013" y="234" width="3" height="4" opacity=".85"><animate attributeName="opacity" values=".9;.9;.15;.9" keyTimes="0;.7;.8;1" dur="2.4s" begin="-0.5s" repeatCount="indefinite"/></rect>
  <rect x="989" y="252" width="3" height="4" opacity=".85"><animate attributeName="opacity" values=".9;.9;.15;.9" keyTimes="0;.7;.8;1" dur="5.5s" begin="-1.2s" repeatCount="indefinite"/></rect>
  <rect x="1050" y="208" width="3" height="4" opacity=".85"><animate attributeName="opacity" values=".9;.9;.15;.9" keyTimes="0;.7;.8;1" dur="3.0s" begin="-0.4s" repeatCount="indefinite"/></rect>
  <rect x="1042" y="217" width="3" height="4" opacity=".85"><animate attributeName="opacity" values=".9;.9;.15;.9" keyTimes="0;.7;.8;1" dur="5.7s" begin="-4.1s" repeatCount="indefinite"/></rect>
  <rect x="1050" y="226" width="3" height="4" opacity=".85"><animate attributeName="opacity" values=".9;.9;.15;.9" keyTimes="0;.7;.8;1" dur="6.1s" begin="-0.6s" repeatCount="indefinite"/></rect>
  <rect x="1058" y="235" width="3" height="4" opacity=".85"><animate attributeName="opacity" values=".9;.9;.15;.9" keyTimes="0;.7;.8;1" dur="4.5s" begin="-0.1s" repeatCount="indefinite"/></rect>
  <rect x="1042" y="244" width="3" height="4" opacity=".85"><animate attributeName="opacity" values=".9;.9;.15;.9" keyTimes="0;.7;.8;1" dur="3.2s" begin="-5.2s" repeatCount="indefinite"/></rect>
  <rect x="1042" y="253" width="3" height="4" opacity=".85"><animate attributeName="opacity" values=".9;.9;.15;.9" keyTimes="0;.7;.8;1" dur="4.0s" begin="-3.9s" repeatCount="indefinite"/></rect>
  <rect x="1066" y="253" width="3" height="4" opacity=".85"><animate attributeName="opacity" values=".9;.9;.15;.9" keyTimes="0;.7;.8;1" dur="4.1s" begin="-0.6s" repeatCount="indefinite"/></rect>
  <rect x="1074" y="253" width="3" height="4" opacity=".85"><animate attributeName="opacity" values=".9;.9;.15;.9" keyTimes="0;.7;.8;1" dur="5.1s" begin="-1.3s" repeatCount="indefinite"/></rect>
  <rect x="1109" y="216" width="3" height="4" opacity=".85"><animate attributeName="opacity" values=".9;.9;.15;.9" keyTimes="0;.7;.8;1" dur="2.7s" begin="-2.8s" repeatCount="indefinite"/></rect>
  <rect x="1109" y="243" width="3" height="4" opacity=".85"><animate attributeName="opacity" values=".9;.9;.15;.9" keyTimes="0;.7;.8;1" dur="3.3s" begin="-1.5s" repeatCount="indefinite"/></rect>
  <rect x="1085" y="252" width="3" height="4" opacity=".85"><animate attributeName="opacity" values=".9;.9;.15;.9" keyTimes="0;.7;.8;1" dur="4.3s" begin="-0.2s" repeatCount="indefinite"/></rect>
  <rect x="1093" y="252" width="3" height="4" opacity=".85"><animate attributeName="opacity" values=".9;.9;.15;.9" keyTimes="0;.7;.8;1" dur="6.4s" begin="-1.4s" repeatCount="indefinite"/></rect>
  <rect x="1197" y="199" width="3" height="4" opacity=".85"><animate attributeName="opacity" values=".9;.9;.15;.9" keyTimes="0;.7;.8;1" dur="5.0s" begin="-5.0s" repeatCount="indefinite"/></rect>
  <rect x="1213" y="199" width="3" height="4" opacity=".85"><animate attributeName="opacity" values=".9;.9;.15;.9" keyTimes="0;.7;.8;1" dur="4.6s" begin="-1.1s" repeatCount="indefinite"/></rect>
  <rect x="1213" y="208" width="3" height="4" opacity=".85"><animate attributeName="opacity" values=".9;.9;.15;.9" keyTimes="0;.7;.8;1" dur="5.2s" begin="-4.3s" repeatCount="indefinite"/></rect>
  <rect x="1197" y="217" width="3" height="4" opacity=".85"><animate attributeName="opacity" values=".9;.9;.15;.9" keyTimes="0;.7;.8;1" dur="3.7s" begin="-0.3s" repeatCount="indefinite"/></rect>
  <rect x="1213" y="217" width="3" height="4" opacity=".85"><animate attributeName="opacity" values=".9;.9;.15;.9" keyTimes="0;.7;.8;1" dur="5.7s" begin="-5.5s" repeatCount="indefinite"/></rect>
  <rect x="1197" y="235" width="3" height="4" opacity=".85"><animate attributeName="opacity" values=".9;.9;.15;.9" keyTimes="0;.7;.8;1" dur="2.2s" begin="-3.0s" repeatCount="indefinite"/></rect>
  <rect x="1205" y="244" width="3" height="4" opacity=".85"><animate attributeName="opacity" values=".9;.9;.15;.9" keyTimes="0;.7;.8;1" dur="4.7s" begin="-3.9s" repeatCount="indefinite"/></rect>
  <rect x="1221" y="253" width="3" height="4" opacity=".85"><animate attributeName="opacity" values=".9;.9;.15;.9" keyTimes="0;.7;.8;1" dur="5.7s" begin="-5.3s" repeatCount="indefinite"/></rect>
</g>
<rect x="0" y="262" width="1200" height="158" fill="url(#floor)"/>
<g mask="url(#floorMask)" stroke="#ff2bd6" stroke-width="1.3" filter="url(#softGlow)">
  <line x1="600" y1="262" x2="-1870" y2="440"/>
  <line x1="600" y1="262" x2="-1775" y2="440"/>
  <line x1="600" y1="262" x2="-1680" y2="440"/>
  <line x1="600" y1="262" x2="-1585" y2="440"/>
  <line x1="600" y1="262" x2="-1490" y2="440"/>
  <line x1="600" y1="262" x2="-1395" y2="440"/>
  <line x1="600" y1="262" x2="-1300" y2="440"/>
  <line x1="600" y1="262" x2="-1205" y2="440"/>
  <line x1="600" y1="262" x2="-1110" y2="440"/>
  <line x1="600" y1="262" x2="-1015" y2="440"/>
  <line x1="600" y1="262" x2="-920" y2="440"/>
  <line x1="600" y1="262" x2="-825" y2="440"/>
  <line x1="600" y1="262" x2="-730" y2="440"/>
  <line x1="600" y1="262" x2="-635" y2="440"/>
  <line x1="600" y1="262" x2="-540" y2="440"/>
  <line x1="600" y1="262" x2="-445" y2="440"/>
  <line x1="600" y1="262" x2="-350" y2="440"/>
  <line x1="600" y1="262" x2="-255" y2="440"/>
  <line x1="600" y1="262" x2="-160" y2="440"/>
  <line x1="600" y1="262" x2="-65" y2="440"/>
  <line x1="600" y1="262" x2="30" y2="440"/>
  <line x1="600" y1="262" x2="125" y2="440"/>
  <line x1="600" y1="262" x2="220" y2="440"/>
  <line x1="600" y1="262" x2="315" y2="440"/>
  <line x1="600" y1="262" x2="410" y2="440"/>
  <line x1="600" y1="262" x2="505" y2="440"/>
  <line x1="600" y1="262" x2="600" y2="440"/>
  <line x1="600" y1="262" x2="695" y2="440"/>
  <line x1="600" y1="262" x2="790" y2="440"/>
  <line x1="600" y1="262" x2="885" y2="440"/>
  <line x1="600" y1="262" x2="980" y2="440"/>
  <line x1="600" y1="262" x2="1075" y2="440"/>
  <line x1="600" y1="262" x2="1170" y2="440"/>
  <line x1="600" y1="262" x2="1265" y2="440"/>
  <line x1="600" y1="262" x2="1360" y2="440"/>
  <line x1="600" y1="262" x2="1455" y2="440"/>
  <line x1="600" y1="262" x2="1550" y2="440"/>
  <line x1="600" y1="262" x2="1645" y2="440"/>
  <line x1="600" y1="262" x2="1740" y2="440"/>
  <line x1="600" y1="262" x2="1835" y2="440"/>
  <line x1="600" y1="262" x2="1930" y2="440"/>
  <line x1="600" y1="262" x2="2025" y2="440"/>
  <line x1="600" y1="262" x2="2120" y2="440"/>
  <line x1="600" y1="262" x2="2215" y2="440"/>
  <line x1="600" y1="262" x2="2310" y2="440"/>
  <line x1="600" y1="262" x2="2405" y2="440"/>
  <line x1="600" y1="262" x2="2500" y2="440"/>
  <line x1="600" y1="262" x2="2595" y2="440"/>
  <line x1="600" y1="262" x2="2690" y2="440"/>
  <line x1="600" y1="262" x2="2785" y2="440"/>
  <line x1="600" y1="262" x2="2880" y2="440"/>
  <line x1="600" y1="262" x2="2975" y2="440"/>
  <line x1="600" y1="262" x2="3070" y2="440"/>
  <line x1="0" x2="1200" y1="302.0" y2="302.0"><animate attributeName="y1" values="302.0;308.7;315.3;322.0;328.7;335.3;342.0" dur="1.6s" repeatCount="indefinite"/><animate attributeName="y2" values="302.0;308.7;315.3;322.0;328.7;335.3;342.0" dur="1.6s" repeatCount="indefinite"/></line>
  <line x1="0" x2="1200" y1="342.0" y2="342.0"><animate attributeName="y1" values="342.0;348.7;355.3;362.0;368.7;375.3;382.0" dur="1.6s" repeatCount="indefinite"/><animate attributeName="y2" values="342.0;348.7;355.3;362.0;368.7;375.3;382.0" dur="1.6s" repeatCount="indefinite"/></line>
  <line x1="0" x2="1200" y1="382.0" y2="382.0"><animate attributeName="y1" values="382.0;388.7;395.3;402.0;408.7;415.3;422.0" dur="1.6s" repeatCount="indefinite"/><animate attributeName="y2" values="382.0;388.7;395.3;402.0;408.7;415.3;422.0" dur="1.6s" repeatCount="indefinite"/></line>
  <line x1="0" x2="1200" y1="422.0" y2="422.0"><animate attributeName="y1" values="422.0;428.7;435.3;442.0;448.7;455.3;462.0" dur="1.6s" repeatCount="indefinite"/><animate attributeName="y2" values="422.0;428.7;435.3;442.0;448.7;455.3;462.0" dur="1.6s" repeatCount="indefinite"/></line>
  <line x1="0" x2="1200" y1="462.0" y2="462.0"><animate attributeName="y1" values="462.0;468.7;475.3;482.0;488.7;495.3;502.0" dur="1.6s" repeatCount="indefinite"/><animate attributeName="y2" values="462.0;468.7;475.3;482.0;488.7;495.3;502.0" dur="1.6s" repeatCount="indefinite"/></line>
  <line x1="0" x2="1200" y1="502.0" y2="502.0"><animate attributeName="y1" values="502.0;508.7;515.3;522.0;528.7;535.3;542.0" dur="1.6s" repeatCount="indefinite"/><animate attributeName="y2" values="502.0;508.7;515.3;522.0;528.7;535.3;542.0" dur="1.6s" repeatCount="indefinite"/></line>
  <line x1="0" x2="1200" y1="542.0" y2="542.0"><animate attributeName="y1" values="542.0;548.7;555.3;562.0;568.7;575.3;582.0" dur="1.6s" repeatCount="indefinite"/><animate attributeName="y2" values="542.0;548.7;555.3;562.0;568.7;575.3;582.0" dur="1.6s" repeatCount="indefinite"/></line>
  <line x1="0" x2="1200" y1="582.0" y2="582.0"><animate attributeName="y1" values="582.0;588.7;595.3;602.0;608.7;615.3;622.0" dur="1.6s" repeatCount="indefinite"/><animate attributeName="y2" values="582.0;588.7;595.3;602.0;608.7;615.3;622.0" dur="1.6s" repeatCount="indefinite"/></line>
  <line x1="0" x2="1200" y1="622.0" y2="622.0"><animate attributeName="y1" values="622.0;628.7;635.3;642.0;648.7;655.3;662.0" dur="1.6s" repeatCount="indefinite"/><animate attributeName="y2" values="622.0;628.7;635.3;642.0;648.7;655.3;662.0" dur="1.6s" repeatCount="indefinite"/></line>
  <line x1="0" x2="1200" y1="662.0" y2="662.0"><animate attributeName="y1" values="662.0;668.7;675.3;682.0;688.7;695.3;702.0" dur="1.6s" repeatCount="indefinite"/><animate attributeName="y2" values="662.0;668.7;675.3;682.0;688.7;695.3;702.0" dur="1.6s" repeatCount="indefinite"/></line>
  <line x1="0" x2="1200" y1="702.0" y2="702.0"><animate attributeName="y1" values="702.0;708.7;715.3;722.0;728.7;735.3;742.0" dur="1.6s" repeatCount="indefinite"/><animate attributeName="y2" values="702.0;708.7;715.3;722.0;728.7;735.3;742.0" dur="1.6s" repeatCount="indefinite"/></line>
  <line x1="0" x2="1200" y1="742.0" y2="742.0"><animate attributeName="y1" values="742.0;748.7;755.3;762.0;768.7;775.3;782.0" dur="1.6s" repeatCount="indefinite"/><animate attributeName="y2" values="742.0;748.7;755.3;762.0;768.7;775.3;782.0" dur="1.6s" repeatCount="indefinite"/></line>
  <line x1="0" x2="1200" y1="782.0" y2="782.0"><animate attributeName="y1" values="782.0;788.7;795.3;802.0;808.7;815.3;822.0" dur="1.6s" repeatCount="indefinite"/><animate attributeName="y2" values="782.0;788.7;795.3;802.0;808.7;815.3;822.0" dur="1.6s" repeatCount="indefinite"/></line>
  <line x1="0" x2="1200" y1="822.0" y2="822.0"><animate attributeName="y1" values="822.0;828.7;835.3;842.0;848.7;855.3;862.0" dur="1.6s" repeatCount="indefinite"/><animate attributeName="y2" values="822.0;828.7;835.3;842.0;848.7;855.3;862.0" dur="1.6s" repeatCount="indefinite"/></line>
</g>
<line x1="0" y1="262" x2="1200" y2="262" stroke="#ff7ae0" stroke-width="2" filter="url(#glow)"/>
<g class="display" font-size="92" text-anchor="middle" letter-spacing="6">
  <text x="600" y="118" fill="#00f0ff" opacity=".85" clip-path="url(#sliceA)">YUGANDAR<animate attributeName="x" values="600;591;605;600;600" keyTimes="0;.1;.2;.3;1" dur="3s" repeatCount="indefinite" calcMode="discrete"/></text>
  <text x="600" y="118" fill="#ff003c" opacity=".85" clip-path="url(#sliceB)">YUGANDAR<animate attributeName="x" values="600;610;594;600;600" keyTimes="0;.1;.2;.3;1" dur="3s" repeatCount="indefinite" calcMode="discrete"/></text>
  <text x="600" y="118" fill="url(#name)" filter="url(#glow)">YUGANDAR<animate attributeName="x" values="600;603;600;600" keyTimes="0;.12;.18;1" dur="3s" repeatCount="indefinite" calcMode="discrete"/></text>
</g>
<text x="600" y="158" text-anchor="middle" class="mono" font-size="17" letter-spacing="5" fill="#7df9ff" filter="url(#softGlow)">SOFTWARE ENGINEER  //  VMOCK INDIA PVT LTD</text>
<clipPath id="type"><rect x="380" y="368" height="30" width="440"><animate attributeName="width" values="0;440;440;0" keyTimes="0;.35;.92;1" dur="7s" repeatCount="indefinite"/></rect></clipPath>
<rect x="370" y="364" width="460" height="36" rx="18" fill="#0a0018" fill-opacity=".75" stroke="#7df9ff" stroke-opacity=".55"/>
<g class="mono" font-size="15" clip-path="url(#type)"><text x="392" y="387"><tspan fill="#ff5fd2">❯</tspan><tspan fill="#e9d5ff"> building AI-powered career tools </tspan><tspan fill="#7df9ff">▍</tspan></text></g>
<path d="M18 44V18H44" fill="none" stroke="#7df9ff" stroke-width="2" opacity=".85"/>
<path d="M1182 44V18H1156" fill="none" stroke="#7df9ff" stroke-width="2" opacity=".85"/>
<path d="M18 376V402H44" fill="none" stroke="#7df9ff" stroke-width="2" opacity=".85"/>
<path d="M1182 376V402H1156" fill="none" stroke="#7df9ff" stroke-width="2" opacity=".85"/>
<g class="mono" font-size="11" fill="#7df9ff" opacity=".8" letter-spacing="2">
  <circle cx="42" cy="42" r="4" fill="#22ff88"><animate attributeName="opacity" values="1;.2;1" dur="1.2s" repeatCount="indefinite"/></circle>
  <text x="54" y="46">SYSTEM ONLINE</text>
  <text x="1158" y="46" text-anchor="end">STATUS: SHIPPING</text>
  <text x="42" y="388" fill="#ff7ae0">MERN · DSA · AI</text>
  <text x="1158" y="388" text-anchor="end" fill="#ff7ae0">v2026</text>
</g>
<rect width="1200" height="420" fill="url(#scan)" opacity=".5"/>
<rect x="0" y="-80" width="1200" height="80" fill="url(#scanBar)"><animate attributeName="y" values="-80;420" dur="5s" repeatCount="indefinite"/></rect>
<rect x=".5" y=".5" width="1199" height="419" rx="16" fill="none" stroke="#ff2bd6" stroke-opacity=".5"/>
</svg>